<?xml version="1.0" encoding="utf-8"?>
<!-- Generator: Adobe Illustrator 19.2.1, SVG Export Plug-In . SVG Version: 6.00 Build 0)  -->
<svg version="1.1" id="Layer_1" xmlns="http://www.w3.org/2000/svg" xmlns:xlink="http://www.w3.org/1999/xlink" x="0px" y="0px"
	 viewBox="0 0 150 150" style="enable-background:new 0 0 150 150;" xml:space="preserve">
<style type="text/css">
	.st0{fill-rule:evenodd;clip-rule:evenodd;fill:#FFFFFF;}
</style>
<g>
	<g id="Icon_Shape">
		<defs>
			<path id="SVGID_1_" d="M150,111.9c0,0.8,0,2.6-0.1,4c-0.1,3.4-0.4,7.7-0.8,9.7c-0.6,3-1.5,5.8-2.7,8.1c-1.4,2.8-3.2,5.2-5.4,7.4
				c-2.1,2.1-4.6,3.9-7.4,5.3c-2.3,1.2-5.2,2.1-8.2,2.7c-2,0.4-6.3,0.7-9.6,0.8c-1.4,0-3.2,0.1-4,0.1l-73.9,0c-0.8,0-2.6,0-4-0.1
				c-3.4-0.1-7.7-0.4-9.7-0.8c-3-0.6-5.8-1.5-8.1-2.7c-2.8-1.4-5.2-3.2-7.4-5.4c-2.1-2.1-3.9-4.6-5.3-7.4c-1.2-2.3-2.1-5.2-2.7-8.2
				c-0.4-2-0.7-6.3-0.8-9.6c0-1.4-0.1-3.2-0.1-4l0-73.9c0-0.8,0-2.6,0.1-4c0.1-3.4,0.4-7.7,0.8-9.7c0.6-3,1.5-5.8,2.7-8.1
				C5,13.5,6.8,11,8.9,8.9c2.1-2.1,4.6-3.9,7.4-5.3c2.3-1.2,5.2-2.1,8.2-2.7c2-0.4,6.3-0.7,9.6-0.8c1.4,0,3.2-0.1,4-0.1l73.9,0
				c0.8,0,2.6,0,4,0.1c3.4,0.1,7.7,0.4,9.7,0.8c3,0.6,5.8,1.5,8.1,2.7c2.8,1.4,5.2,3.2,7.4,5.4c2.1,2.1,3.9,4.6,5.3,7.4
				c1.2,2.3,2.1,5.2,2.7,8.2c0.4,2,0.7,6.3,0.8,9.6c0,1.4,0.1,3.2,0.1,4L150,111.9z"/>
		</defs>
		<linearGradient id="SVGID_2_" gradientUnits="userSpaceOnUse" x1="75" y1="150.0005" x2="75" y2="-5.107835e-04">
			<stop  offset="0" style="stop-color:#25CF43"/>
			<stop  offset="1" style="stop-color:#61FD7D"/>
		</linearGradient>
		<use xlink:href="#SVGID_1_"  style="overflow:visible;fill-rule:evenodd;clip-rule:evenodd;fill:url(#SVGID_2_);"/>
		<clipPath id="SVGID_3_">
			<use xlink:href="#SVGID_1_"  style="overflow:visible;"/>
		</clipPath>
	</g>
	<g id="WA_Logo">
		<g>
			<path class="st0" d="M114.4,35.9c-10.1-10.1-23.5-15.7-37.8-15.7c-29.5,0-53.5,24-53.5,53.4c0,9.4,2.5,18.6,7.1,26.7l-7.6,27.7
				l28.3-7.4c7.8,4.3,16.6,6.5,25.6,6.5h0c0,0,0,0,0,0c29.5,0,53.5-24,53.5-53.5C130.1,59.4,124.5,46,114.4,35.9z M76.6,118.1
				L76.6,118.1c-8,0-15.8-2.1-22.6-6.2l-1.6-1l-16.8,4.4L40,99L39,97.3c-4.4-7.1-6.8-15.2-6.8-23.6c0-24.5,19.9-44.4,44.5-44.4
				c11.9,0,23,4.6,31.4,13s13,19.6,13,31.4C121.1,98.2,101.1,118.1,76.6,118.1z M101,84.9c-1.3-0.7-7.9-3.9-9.1-4.3
				c-1.2-0.4-2.1-0.7-3,0.7c-0.9,1.3-3.5,4.3-4.2,5.2c-0.8,0.9-1.6,1-2.9,0.3c-1.3-0.7-5.6-2.1-10.7-6.6c-4-3.5-6.7-7.9-7.4-9.3
				c-0.8-1.3-0.1-2.1,0.6-2.7c0.6-0.6,1.3-1.6,2-2.3c0.7-0.8,0.9-1.3,1.3-2.2c0.4-0.9,0.2-1.7-0.1-2.3s-3-7.2-4.1-9.9
				c-1.1-2.6-2.2-2.3-3-2.3c-0.8,0-1.7,0-2.6,0c-0.9,0-2.3,0.3-3.6,1.7c-1.2,1.3-4.7,4.6-4.7,11.1c0,6.6,4.8,12.9,5.5,13.8
				c0.7,0.9,9.4,14.4,22.8,20.2c3.2,1.4,5.7,2.2,7.6,2.8c3.2,1,6.1,0.9,8.4,0.5c2.6-0.4,7.9-3.2,9-6.4c1.1-3.1,1.1-5.8,0.8-6.4
				C103.2,85.9,102.3,85.5,101,84.9z"/>
		</g>
	</g>
</g>
</svg>
