<svg id="Layer_1" xmlns="http://www.w3.org/2000/svg" viewBox="0 0 150 150"><style></style><path d="M150 119.2c0 17-13.8 30.8-30.8 30.8H30.8C13.8 150 0 136.2 0 119.2V30.8C0 13.8 13.8 0 30.8 0h88.4c17 0 30.8 13.8 30.8 30.8v88.4z" fill="#fff200"/><path d="M61.2 25.5c-3 1.3-5.8 3.1-8.1 5.4-2.8 2.7-5.1 5.9-6.8 9.7-2.5 5.6-1.9 15-1.4 22.5.1.8.1 1.7.1 2.5-.4.2-1 .3-1.8.3-1.3 0-2.6-.4-3.8-.8-1-.4-2.1-.8-3.2-.9-1.1 0-2.2.4-3.2.9-1.3.8-2.1 1.8-2.4 3-.1.8-.1 2.3 1.6 3.9 1 .9 2.3 1.7 4.1 2.4.5.2 1 .4 1.6.6 2.1.7 5.2 1.7 6 3.6.4 1 .2 2.2-.5 3.8v.1c-.9 2.2-2.3 4.3-3.6 6.2-2.2 3-4.8 5.8-7.8 7.9-1.6 1.1-3.3 2.1-5.1 2.8-1.6.6-3.3.9-5 1.4-1.4.4-2.5 1.3-2.4 2.8 0 .4.1.8.3 1.1.5 1.2 1.8 2.3 3.8 3.2 2.4 1.1 6.1 2.1 10.9 2.8.2.5.5 1.6.7 2.4.2.8.4 1.7.6 2.6.3 1 1.1 2.2 3 2.2.7 0 1.6-.2 2.6-.4 1.4-.3 3.4-.7 5.8-.7 1.4 0 2.8.1 4.2.4 2.7.5 5.1 2.1 7.8 4 .2.2.5.3.7.5 1.7 1.2 3.4 2.3 5.2 3.2 2.1 1 4.2 1.7 6.5 2.1 1.3.2 2.6.2 3.9.2 1.5 0 2.9-.1 4.3-.4 2.2-.4 4.3-1.3 6.3-2.3.9-.5 1.8-1 2.7-1.6.8-.5 1.7-1.1 2.4-1.7 2.7-1.9 5.1-3.6 7.8-4 1.4-.2 2.8-.4 4.2-.4 2.3 0 4.2.3 5.8.6 1.1.2 1.9.3 2.6.3h.2c1.4 0 2.5-.8 2.9-2.1.3-.9.5-1.7.6-2.6.2-.7.4-1.9.7-2.4 4.8-.7 8.4-1.7 10.9-2.8 2-.9 3.2-2 3.8-3.2.2-.4.2-.8.3-1.1.1-1.3-.9-2.5-2.2-2.7-14.9-2.5-21.6-17.7-21.8-18.4 0 0 0-.1-.1-.1-.8-1.5-.9-2.8-.5-3.8.8-1.9 3.9-2.9 6-3.6.6-.2 1.2-.4 1.6-.6 2-.8 3.5-1.7 4.4-2.7 1.1-1.2 1.4-2.3 1.4-3-.1-2.9-2.9-4.5-5.4-4.5-1.2 0-2.7.4-3.9.9-1.1.4-2.3.8-3.6.9-.7 0-1.2-.2-1.5-.3 0-.7.1-1.4.1-2.1v-.3c.5-7.6 1.1-16.9-1.4-22.5-1.7-3.8-4-7.1-6.8-9.8-2.4-2.2-5.1-4-8.1-5.4-3.1-1.4-6.4-2.2-9.8-2.5-1.3-.1-2.6-.2-3.9-.2-2.8 0-5.8.3-8.5 1-2.3.3-4.1.9-5.8 1.7M48.7 41.7l.6-1.2c1.3-2.5 2.9-4.9 4.8-6.9 1.7-1.7 3.6-3.2 5.7-4.4 1.8-1 3.7-1.8 5.7-2.4 1.6-.5 3.3-.8 5-1.1 1.6-.2 3.3-.3 4.9-.3 1.6 0 3.2.1 4.8.3 1.7.3 3.5.7 5.1 1.2 2 .7 4 1.6 5.8 2.7 2.1 1.3 4 2.9 5.6 4.7 1.9 2.2 3.5 4.7 4.7 7.3 2.2 5 1.7 14 1.2 21.3-.1 1.1-.1 2.3-.2 3.3v.5l.3.3c.1.1 1.3 1.3 3.9 1.4 1.1 0 2.2-.3 3.3-.6 1-.3 1.9-.8 2.9-1.1 1.1-.2 3 .3 3.7 1.1.7.8-.1 1.9-.7 2.4-.9.7-2 1.2-3.1 1.7-.4.2-.9.3-1.5.5-2.5.8-6.3 2-7.6 5-.7 1.7-.5 3.7.6 6 .4 1.1 7.6 17.3 23.8 19.9 0 .1 0 .2-.1.3-.3.6-2 2.9-12.9 4.5-1.7.3-2.1 2.2-2.6 4.4-.2.8-.3 1.6-.6 2.4-.1.3-.1.3-.4.3h-.1c-.5 0-1.2-.1-2.1-.3-1.5-.3-3.6-.7-6.3-.7-1.5 0-3 .1-4.6.4-3.3.6-6 2.5-8.9 4.5-1.7 1.2-3.5 2.5-5.4 3.5-2.1 1.1-4.4 1.8-6.7 2-.5 0-1 .1-1.6.1-2.5.1-5-.2-7.3-1-2.1-.7-4-1.8-5.8-3-.8-.5-1.5-1-2.2-1.5-2.9-2-5.6-3.9-8.9-4.5-1.5-.3-3.1-.4-4.6-.4-2.7 0-4.8.4-6.3.7-.8.2-1.6.3-2.1.3-.4 0-.4 0-.5-.3l-.6-2.4c-.5-2.2-.9-4.1-2.6-4.4-10.8-1.7-12.6-3.9-12.9-4.6 0-.1-.1-.2-.1-.3 16.2-2.7 23.4-18.8 23.8-19.9 1.1-2.3 1.3-4.3.6-6-1.3-3-5.1-4.2-7.6-5-.6-.2-1.1-.3-1.5-.5-1.5-.6-6.1-2.7-3.1-4.6.6-.4 1.3-.6 2.1-.6s1.5.4 2.3.7c1.5.5 3 .9 4.6.9 2.8 0 4.1-1.3 4.2-1.5l.3-.3V66c-.1-1.1-.1-2.2-.2-3.3-.3-7-.9-16.1 1.4-21" fill="#030303"/><path d="M115.1 108.2c10.8-1.7 12.6-3.9 12.9-4.5 0-.1.1-.2.1-.3-16.2-2.7-23.4-18.9-23.8-19.9-1.1-2.3-1.3-4.3-.6-6 1.3-3 5.1-4.2 7.6-5 .6-.2 1.1-.3 1.5-.5 1.1-.4 2.2-.9 3.1-1.7.6-.5 1.4-1.6.7-2.4-.7-.8-2.6-1.3-3.7-1.1-1 .2-1.9.7-2.9 1.1-1.1.4-2.2.6-3.3.6-2.6-.1-3.7-1.3-3.9-1.4l-.3-.3v-.5c.1-1.1.1-2.2.2-3.3.5-7.3 1-16.3-1.2-21.3-1.2-2.7-2.7-5.2-4.7-7.3-1.6-1.8-3.5-3.4-5.6-4.7-1.8-1.1-3.8-2-5.8-2.7-1.7-.6-3.4-1-5.1-1.2-1.6-.2-3.2-.3-4.9-.3-1.6 0-3.3 0-4.9.3-1.7.2-3.4.6-5 1.1-2 .6-3.9 1.4-5.7 2.4-2.1 1.2-4 2.7-5.7 4.4-2 2-3.6 4.4-4.8 6.9l-.6 1.2c-2.2 5-1.7 14-1.2 21.3.1 1.1.1 2.3.2 3.3v.5l-.3.3c-.1.2-1.4 1.5-4.2 1.5-1.6 0-3.1-.4-4.6-1-.8-.3-1.5-.7-2.3-.7-.8-.1-1.5.2-2.1.6-3 1.8 1.6 4 3.1 4.6.4.2.9.3 1.5.5 2.5.8 6.3 2 7.6 5 .7 1.7.5 3.7-.6 6-.4 1.1-7.6 17.3-23.8 19.9 0 .1 0 .2.1.3.3.6 2 2.9 12.9 4.5 1.7.3 2.1 2.2 2.6 4.4.2.8.3 1.6.6 2.4.1.3.1.3.5.3.5 0 1.2-.2 2.1-.3 1.5-.3 3.6-.7 6.3-.7 1.5 0 3 .1 4.6.4 3.3.6 6 2.5 8.9 4.5.7.5 1.5 1.1 2.2 1.5 1.8 1.2 3.7 2.3 5.8 3 2.4.8 4.8 1 7.3.9.5 0 1 0 1.6-.1 2.3-.2 4.6-.9 6.7-2 1.9-1 3.7-2.2 5.4-3.5 2.9-2 5.6-3.9 8.9-4.5 1.6-.3 3.1-.4 4.6-.4 2.7 0 4.8.4 6.3.7.8.2 1.6.3 2.1.3h.1c.3 0 .3 0 .3-.3l.6-2.4c.5-2.2.9-4.1 2.6-4.4" fill="#fff"/></svg>