<?xml version="1.0" encoding="utf-8"?>
<!-- Generator: Adobe Illustrator 19.2.1, SVG Export Plug-In . SVG Version: 6.00 Build 0)  -->
<svg version="1.1" id="Layer_1" xmlns="http://www.w3.org/2000/svg" xmlns:xlink="http://www.w3.org/1999/xlink" x="0px" y="0px"
	 viewBox="0 0 620 500" style="enable-background:new 0 0 620 500;" xml:space="preserve">
<style type="text/css">
	.st0{opacity:0.5;fill:#FFFFFF;enable-background:new    ;}
	.st1{fill:#981E32;}
</style>
<path class="st0" d="M26.9,500H593c26.6,0,26.9-26.7,26.9-26.9V26.9C620,0.3,593.3,0,593.1,0H26.9C0.3,0,0,26.7,0,26.9V473
	C0,499.7,26.7,500,26.9,500z"/>
<title>Untitled-1</title>
<path class="st1" d="M593.1,0H26.9C0.3,0,0,26.7,0,26.9V473c0,26.7,26.7,27,26.9,27H593c26.6,0,26.9-26.7,26.9-26.9V26.9
	C620,0.3,593.3,0,593.1,0z M607.8,471.8c0,8.8-7.2,16-16,16H28.2c-8.8,0-16-7.2-16-16V28.2c0-8.8,7.2-16,16-16h563.6
	c8.8,0,16,7.2,16,16L607.8,471.8L607.8,471.8z"/>
<g>
	<path class="st1" d="M286.2,246.1v90.8h-14.3v-29c-9.8,25.1-31.5,33.5-52.4,33.5c-53.4,0-74-45-74-90c0-39.6,17.5-92.5,78-92.5
		c43.8,0,57.3,28.8,64,44l-15.5,8.4c-5.2-19.7-18.5-38.6-47-38.6c-33,0-62,24.6-62,78c0,50.2,23.1,76,57.3,76
		c10.3,0,51.7-1.7,51.7-65.4h-64v-15H286.2z"/>
	<path class="st1" d="M400.1,158.7c46,0,74.3,33.2,74.3,89.1c0,44.5-19.9,93.5-74.3,93.5c-59.3,0-75.3-54.4-75.3-91.8
		C324.8,217.3,337.9,158.7,400.1,158.7z M399.4,326.5c44.8,0,57.6-45.3,57.6-79.2c0-26.6-11.3-74.3-56.8-74.3
		c-43,0-57.8,41.6-57.8,77C342.3,272.4,349.4,326.5,399.4,326.5z"/>
</g>
</svg>
