<svg id="Layer_1" data-name="Layer 1" xmlns="http://www.w3.org/2000/svg" viewBox="0 0 500 500"><defs><style></style></defs><path class="cls-1" d="M473.06 500H26.94C26.67 500 0 499.69 0 473.06V26.94C0 26.67.31 0 26.94 0h446.12c.27 0 26.94.31 26.94 26.94v446.12c0 .27-.31 26.94-26.94 26.94zM26.94 4.14C4.4 4.14 4.14 26 4.14 26.94v446.12c0 22.53 21.86 22.79 22.79 22.79h446.13c22.53 0 22.79-21.86 22.79-22.79V26.94c.01-22.54-21.85-22.8-22.79-22.8H26.94z"/><path d="M192.86 367.21l-2.93-2.93 114.28-114.27-114.28-114.29 2.93-2.93 117.21 117.22-117.21 117.2z"/></svg>