<svg id="Layer_1" xmlns="http://www.w3.org/2000/svg" viewBox="0 0 150 150"><style>.st2{fill:#fff}</style><path class="st2" d="M150 119.2c0 17-13.8 30.8-30.8 30.8H30.8C13.8 150 0 136.2 0 119.2V30.8C0 13.8 13.8 0 30.8 0h88.4c17 0 30.8 13.8 30.8 30.8v88.4z"/><path d="M125.4 75c0 27.8-22.6 50.4-50.4 50.4-27.8 0-50.4-22.5-50.4-50.4S47.2 24.6 75 24.6c27.8 0 50.4 22.6 50.4 50.4" fill="#bd081c"/><path class="st2" d="M69.4 98.6c4.2 4.8 11.1 6.6 17.2 4.7 1.3-.4 2.5-.8 3.7-1.3 2.3-1 4.6-2.3 6.4-4.1 5.4-4.9 8.4-11.2 9.7-18.2 1.8-9.2.2-17.7-5.6-25.1-3.5-4.5-8.5-7.4-13.8-9.3-7.2-2.5-15.3-2.8-22.6-.5-2.1.7-4.2 1.6-6.1 2.7-6.8 3.9-12.1 10.1-14.2 17.7-.6 2-.9 4.1-1.1 6.2-.5 5.1.6 10.1 2.9 14.6l1.2 2.1c.8 1.7 2 3.4 3.6 4.6.7.5 1.6 1 2.5 1 1.3-.1 1.6-1.3 1.9-2.4.4-1.2.5-2.4.8-3.6.2-1.1.3-1.7-.4-2.7-5.4-7.6-3.5-19.9 3.1-26.1 6-5.6 12.8-7.2 20.3-6.1 6.8 1 12.8 5.4 15.4 11.8 1.1 2.6 1.4 6.2 1.5 8.9.1 4-.6 7.6-2.1 11.3-1.3 3.2-3.3 6.3-6.1 8.4-4.1 3.1-12.7 4.4-14.5-2-.4-1.6-.5-3.6-.2-5.3.8-4.1 2.4-7.9 3.3-11.9.5-2.1.8-4.3.2-6.5-.7-2.6-2.3-4.2-5-4.6-2.9-.4-5.5.5-7.2 2.7-3.4 4.6-3.9 9.9-2.2 15.3.4 1.2.5 2.2.2 3.4-1.6 6.6-3 13.2-4.7 19.8-1.2 4.5-1.5 9.1-1.3 13.7.1 1.3.1 2.6.4 3.8.2.8.5 2 1.3 2.5 1.1.6 2.1-.8 2.6-1.6 2.1-3.1 3.8-6.6 5-10.1.8-2.3 1.4-4.7 2.1-7 .2-.9 1.4-5.1 1.8-6.8"/></svg>