<?xml version="1.0" encoding="utf-8"?>
<!-- Generator: Adobe Illustrator 19.2.1, SVG Export Plug-In . SVG Version: 6.00 Build 0)  -->
<svg version="1.1" id="Layer_1" xmlns="http://www.w3.org/2000/svg" xmlns:xlink="http://www.w3.org/1999/xlink" x="0px" y="0px"
	 viewBox="0 0 500 500" style="enable-background:new 0 0 500 500;" xml:space="preserve">
<style type="text/css">
	.st0{opacity:0.5;fill:#FFFFFF;}
	.st1{fill:#808184;}
</style>
<path class="st0" d="M473.1,0H26.9C0.3,0,0,26.7,0,26.9v446.1C0,499.7,26.7,500,26.9,500h446.1c26.6,0,26.9-26.7,26.9-26.9V26.9
	C500,0.3,473.3,0,473.1,0z"/>
<title>Untitled-1</title>
<polygon class="st1" points="187.1,250 307.1,130 312.9,135.7 198.6,250 312.9,364.3 307.1,370 "/>
<path class="st1" d="M473.1,0H26.9C0.3,0,0,26.7,0,26.9v446.1C0,499.7,26.7,500,26.9,500h446.1c26.6,0,26.9-26.7,26.9-26.9V26.9
	C500,0.3,473.3,0,473.1,0z M493.8,473.1c0,0.8-0.2,20.3-20,20.8H26.9c-0.8,0-20.8-0.2-20.8-20.8V26.9c0-0.8,0.2-20.8,20.8-20.8
	h446.1c0.2,0,5.6,0,10.8,2.7c6.6,3.4,10,9.5,10,18.1V473.1z"/>
</svg>
