<svg id="Layer_1" xmlns="http://www.w3.org/2000/svg" viewBox="0 0 150 150"><style></style><path d="M150 119.2c0 17-13.8 30.8-30.8 30.8H30.8C13.8 150 0 136.2 0 119.2V30.8C0 13.8 13.8 0 30.8 0h88.4c17 0 30.8 13.8 30.8 30.8v88.4z" fill="#1ca1f2"/><path d="M57.1 118.5c39.4 0 61-32.7 61-61 0-.9 0-1.8-.1-2.8 4.2-3 7.8-6.8 10.7-11.1-3.8 1.7-8 2.9-12.3 3.4 4.4-2.7 7.8-6.9 9.4-11.9-4.1 2.4-8.7 4.2-13.6 5.2-3.9-4.2-9.5-6.8-15.6-6.8-11.8 0-21.4 9.6-21.4 21.4 0 1.7.2 3.3.6 4.9-17.9-.8-33.7-9.3-44.2-22.3-1.8 3.2-2.9 6.8-2.9 10.8 0 7.4 3.8 14 9.5 17.8-3.5-.1-6.8-1.1-9.7-2.7v.3c0 10.4 7.4 19 17.2 21-1.8.5-3.7.8-5.6.8-1.4 0-2.7-.1-4-.4 2.7 8.5 10.6 14.7 20 14.9-7.3 5.7-16.6 9.2-26.6 9.2-1.7 0-3.4-.1-5.1-.3 9.4 6 20.6 9.6 32.7 9.6" fill="#fff"/></svg>