<svg id="Layer_1" xmlns="http://www.w3.org/2000/svg" viewBox="0 0 150 150"><style>.st2{fill:#fff}</style><path d="M150 119.2c0 17-13.8 30.8-30.8 30.8H30.8C13.8 150 0 136.2 0 119.2V30.8C0 13.8 13.8 0 30.8 0h88.4c17 0 30.8 13.8 30.8 30.8v88.4z" fill="#007ab5"/><path class="st2" d="M33.7 20.8c7.2 0 13 5.8 13 13.1 0 7.2-5.9 13-13 13-7.2 0-13.1-5.8-13.1-13 .1-7.3 5.9-13.1 13.1-13.1m-11.2 36H45v72.4H22.5V56.8zM59.1 56.8h21.6v9.9h.3C84 61 91.4 55 102.3 55c22.8 0 27 15 27 34.5v39.7h-22.5V94c0-8.4-.1-19.2-11.7-19.2-11.7 0-13.5 9.2-13.5 18.6v35.8H59.1V56.8z"/></svg>