<?xml version="1.0" encoding="utf-8"?>
<!-- Generator: Adobe Illustrator 22.1.0, SVG Export Plug-In . SVG Version: 6.00 Build 0)  -->
<svg version="1.1" id="Layer_1" xmlns="http://www.w3.org/2000/svg" xmlns:xlink="http://www.w3.org/1999/xlink" x="0px" y="0px"
	 width="30px" height="30px" viewBox="0 0 30 30" style="enable-background:new 0 0 30 30;" xml:space="preserve">
<style type="text/css">
	.st0{fill:none;stroke:#000000;stroke-miterlimit:10;}
</style>
<polyline class="st0" points="8,11.6 15,18.6 22,11.6 "/>
<g>
	<path d="M28,1.1c0.6,0,1,0.4,1,1v26c0,0.6-0.4,1-1,1H2c-0.6,0-1-0.4-1-1v-26c0-0.6,0.4-1,1-1H28 M28,0.1H2c-1.1,0-2,0.9-2,2v26
		c0,1.1,0.9,2,2,2h26c1.1,0,2-0.9,2-2v-26C30,1,29.1,0.1,28,0.1L28,0.1z"/>
</g>
</svg>
